<svg width="48" height="48" viewBox="0 0 48 48" fill="none" xmlns="http://www.w3.org/2000/svg">
<circle cx="24" cy="24" r="23.5" fill="white" stroke="#6248FF"/>
<path d="M21.8413 19.1762C21.6867 19.0201 21.6 18.8092 21.6 18.5894C21.6 18.3697 21.6867 18.1588 21.8413 18.0026C21.9173 17.9255 22.0078 17.8643 22.1076 17.8225C22.2074 17.7807 22.3145 17.7592 22.4227 17.7592C22.5309 17.7592 22.6381 17.7807 22.7379 17.8225C22.8377 17.8643 22.9282 17.9255 23.0041 18.0026L27.6001 22.6922C27.7545 22.8487 27.8411 23.0598 27.8411 23.2796C27.8411 23.4995 27.7545 23.7105 27.6001 23.867L23.0041 28.5566C22.9282 28.6337 22.8377 28.6949 22.7379 28.7367C22.6381 28.7785 22.5309 28.8 22.4227 28.8C22.3145 28.8 22.2074 28.7785 22.1076 28.7367C22.0078 28.6949 21.9173 28.6337 21.8413 28.5566C21.6867 28.4005 21.6 28.1896 21.6 27.9698C21.6 27.7501 21.6867 27.5392 21.8413 27.383L25.6105 23.2778L21.8413 19.1762Z" fill="black"/>
</svg>
