<svg width="48" height="48" viewBox="0 0 48 48" fill="none" xmlns="http://www.w3.org/2000/svg">
<circle cx="24" cy="24" r="23.5" transform="matrix(-1 0 0 1 48 0)" fill="white" stroke="#E0E0E0"/>
<path d="M26.1587 19.1762C26.3133 19.0201 26.4 18.8092 26.4 18.5894C26.4 18.3697 26.3133 18.1588 26.1587 18.0026C26.0827 17.9255 25.9922 17.8643 25.8924 17.8225C25.7926 17.7807 25.6855 17.7592 25.5773 17.7592C25.4691 17.7592 25.3619 17.7807 25.2621 17.8225C25.1623 17.8643 25.0718 17.9255 24.9959 18.0026L20.3999 22.6922C20.2455 22.8487 20.1589 23.0598 20.1589 23.2796C20.1589 23.4995 20.2455 23.7105 20.3999 23.867L24.9959 28.5566C25.0718 28.6337 25.1623 28.6949 25.2621 28.7367C25.3619 28.7785 25.4691 28.8 25.5773 28.8C25.6855 28.8 25.7926 28.7785 25.8924 28.7367C25.9922 28.6949 26.0827 28.6337 26.1587 28.5566C26.3133 28.4005 26.4 28.1896 26.4 27.9698C26.4 27.7501 26.3133 27.5392 26.1587 27.383L22.3895 23.2778L26.1587 19.1762Z" fill="black"/>
</svg>
