<svg width="32" height="32" viewBox="0 0 32 32" fill="none" xmlns="http://www.w3.org/2000/svg">
<path fill-rule="evenodd" clip-rule="evenodd" d="M22.364 9.63593C22.5515 9.82347 22.6569 10.0778 22.6569 10.343C22.6569 10.6083 22.5515 10.8626 22.364 11.0501L16.7071 16.707C16.5196 16.8945 16.2652 16.9999 16 16.9999C15.7348 16.9999 15.4804 16.8945 15.2929 16.707L9.63604 11.0501C9.4485 10.8626 9.34315 10.6083 9.34315 10.343C9.34315 10.0778 9.4485 9.82347 9.63604 9.63593C9.82358 9.4484 10.0779 9.34304 10.3431 9.34304C10.6084 9.34304 10.8627 9.4484 11.0503 9.63593L16 14.5857L20.9497 9.63593C21.1373 9.4484 21.3916 9.34304 21.6569 9.34304C21.9221 9.34304 22.1764 9.4484 22.364 9.63593Z" fill="black"/>
<path fill-rule="evenodd" clip-rule="evenodd" d="M15.2929 15.2928C15.4804 15.1053 15.7348 14.9999 16 14.9999C16.2652 14.9999 16.5196 15.1053 16.7071 15.2928L22.364 20.9497C22.5515 21.1372 22.6569 21.3915 22.6569 21.6568C22.6569 21.922 22.5515 22.1763 22.364 22.3639C22.1764 22.5514 21.9221 22.6568 21.6569 22.6568C21.3916 22.6568 21.1373 22.5514 20.9497 22.3639L16 17.4141L11.0503 22.3639C10.8627 22.5514 10.6084 22.6568 10.3431 22.6568C10.0779 22.6568 9.82358 22.5514 9.63604 22.3639C9.4485 22.1763 9.34315 21.922 9.34315 21.6568C9.34315 21.3915 9.4485 21.1372 9.63604 20.9497L15.2929 15.2928Z" fill="black"/>
</svg>
