<svg width="43" height="12" viewBox="0 0 43 12" fill="none" xmlns="http://www.w3.org/2000/svg">
<path d="M4.47035e-08 10.9048V0.179785H2.625V8.65479H7.005V10.9048H4.47035e-08ZM7.41305 5.47478C7.41305 3.91478 7.93805 2.61478 8.98805 1.57478C10.038 0.524784 11.383 -0.000215709 13.023 -0.000215709C14.663 -0.000215709 16.008 0.524784 17.058 1.57478C18.108 2.61478 18.633 3.91478 18.633 5.47478C18.633 7.07478 18.108 8.40979 17.058 9.47979C16.008 10.5498 14.663 11.0848 13.023 11.0848C11.383 11.0848 10.038 10.5498 8.98805 9.47979C7.93805 8.40979 7.41305 7.07478 7.41305 5.47478ZM10.128 5.47478C10.128 6.39478 10.398 7.15979 10.938 7.76979C11.488 8.37979 12.183 8.68479 13.023 8.68479C13.863 8.68479 14.553 8.37979 15.093 7.76979C15.643 7.15979 15.918 6.39478 15.918 5.47478C15.918 4.59478 15.643 3.86478 15.093 3.28478C14.553 2.69478 13.863 2.39978 13.023 2.39978C12.183 2.39978 11.488 2.69478 10.938 3.28478C10.398 3.86478 10.128 4.59478 10.128 5.47478ZM19.7327 5.51978C19.7327 3.94978 20.2627 2.63978 21.3227 1.58978C22.3927 0.529784 23.7377 -0.000215709 25.3577 -0.000215709C27.0277 -0.000215709 28.4027 0.474784 29.4827 1.42478L28.2227 3.38978C27.9127 3.10978 27.5127 2.87478 27.0227 2.68478C26.5327 2.49478 26.0627 2.39978 25.6127 2.39978C24.5527 2.39978 23.7577 2.68978 23.2277 3.26979C22.7077 3.83978 22.4477 4.55978 22.4477 5.42979C22.4477 6.41979 22.7427 7.20979 23.3327 7.79978C23.9327 8.38979 24.6627 8.68479 25.5227 8.68479C26.3027 8.68479 27.0277 8.42479 27.6977 7.90479V7.07978H26.1827V4.84478H30.0227V10.9048H27.8327V10.6048L27.8477 10.1548H27.8177C27.4977 10.4348 27.0777 10.6598 26.5577 10.8298C26.0477 10.9998 25.5277 11.0848 24.9977 11.0848C23.5577 11.0848 22.3177 10.5798 21.2777 9.56979C20.2477 8.55979 19.7327 7.20978 19.7327 5.51978ZM31.3193 5.47478C31.3193 3.91478 31.8443 2.61478 32.8943 1.57478C33.9443 0.524784 35.2893 -0.000215709 36.9293 -0.000215709C38.5693 -0.000215709 39.9143 0.524784 40.9643 1.57478C42.0143 2.61478 42.5393 3.91478 42.5393 5.47478C42.5393 7.07478 42.0143 8.40979 40.9643 9.47979C39.9143 10.5498 38.5693 11.0848 36.9293 11.0848C35.2893 11.0848 33.9443 10.5498 32.8943 9.47979C31.8443 8.40979 31.3193 7.07478 31.3193 5.47478ZM34.0343 5.47478C34.0343 6.39478 34.3043 7.15979 34.8443 7.76979C35.3943 8.37979 36.0893 8.68479 36.9293 8.68479C37.7693 8.68479 38.4593 8.37979 38.9993 7.76979C39.5493 7.15979 39.8243 6.39478 39.8243 5.47478C39.8243 4.59478 39.5493 3.86478 38.9993 3.28478C38.4593 2.69478 37.7693 2.39978 36.9293 2.39978C36.0893 2.39978 35.3943 2.69478 34.8443 3.28478C34.3043 3.86478 34.0343 4.59478 34.0343 5.47478Z" fill="#333333"/>
</svg>
