<svg width="49" height="12" viewBox="0 0 49 12" fill="none" xmlns="http://www.w3.org/2000/svg">
<path d="M5.685 10.9499C5.175 11.2299 4.57 11.3699 3.87 11.3699C3.17 11.3699 2.56 11.2299 2.04 10.9499C1.53 10.6699 1.13 10.2699 0.840004 9.74994C0.550004 9.22994 0.335004 8.64994 0.195004 8.00994C0.0650037 7.36994 3.68804e-06 6.64994 3.68804e-06 5.84994C3.68804e-06 5.04994 0.0650037 4.32994 0.195004 3.68994C0.335004 3.04994 0.550004 2.47494 0.840004 1.96494C1.13 1.45494 1.53 1.05994 2.04 0.779941C2.55 0.499941 3.16 0.35994 3.87 0.35994C6.44 0.35994 7.725 2.18994 7.725 5.84994C7.725 6.64994 7.655 7.36994 7.515 8.00994C7.385 8.64994 7.175 9.22994 6.885 9.74994C6.605 10.2699 6.205 10.6699 5.685 10.9499ZM1.995 5.84994C1.995 8.34994 2.62 9.59994 3.87 9.59994C5.12 9.59994 5.745 8.34994 5.745 5.84994C5.745 3.37994 5.12 2.14494 3.87 2.14494C2.62 2.14494 1.995 3.37994 1.995 5.84994ZM9.41895 11.1899V9.52494H11.7439V3.61494L11.7589 2.89494H11.7289C11.6389 3.06494 11.4789 3.26494 11.2489 3.49494L10.3939 4.30494L9.25395 3.10494L11.9239 0.539941H13.6189V9.52494H15.9289V11.1899H9.41895Z" fill="#6248FF"/>
<path d="M20.573 11.8199L24.398 -5.93662e-05H26.033L22.208 11.8199H20.573ZM36.7983 10.9499C36.2883 11.2299 35.6833 11.3699 34.9833 11.3699C34.2833 11.3699 33.6733 11.2299 33.1533 10.9499C32.6433 10.6699 32.2433 10.2699 31.9533 9.74994C31.6633 9.22994 31.4483 8.64994 31.3083 8.00994C31.1783 7.36994 31.1133 6.64994 31.1133 5.84994C31.1133 5.04994 31.1783 4.32994 31.3083 3.68994C31.4483 3.04994 31.6633 2.47494 31.9533 1.96494C32.2433 1.45494 32.6433 1.05994 33.1533 0.779941C33.6633 0.499941 34.2733 0.35994 34.9833 0.35994C37.5533 0.35994 38.8383 2.18994 38.8383 5.84994C38.8383 6.64994 38.7683 7.36994 38.6283 8.00994C38.4983 8.64994 38.2883 9.22994 37.9983 9.74994C37.7183 10.2699 37.3183 10.6699 36.7983 10.9499ZM33.1083 5.84994C33.1083 8.34994 33.7333 9.59994 34.9833 9.59994C36.2333 9.59994 36.8583 8.34994 36.8583 5.84994C36.8583 3.37994 36.2333 2.14494 34.9833 2.14494C33.7333 2.14494 33.1083 3.37994 33.1083 5.84994ZM40.1422 8.44494V7.25994L44.7472 0.539941H47.0272V6.83994H48.4072V8.44494H47.0272V11.1899H45.1222V8.44494H40.1422ZM42.1822 6.83994H45.1222V3.53994L45.1972 2.42994H45.1672C45.0072 2.80994 44.8322 3.13494 44.6422 3.40494L42.1822 6.80994V6.83994Z" fill="#4F62F6"/>
</svg>
